<?xml version="1.0" encoding="UTF-8"?>
<svg id="_圖層_1" data-name="圖層 1" xmlns="http://www.w3.org/2000/svg" xmlns:xlink="http://www.w3.org/1999/xlink" viewBox="0 0 1233.48 320.77">
  <defs>
    <style>
      .cls-1 {
        fill: #eeeeef;
      }

      .cls-2 {
        fill: #f7b52c;
      }
    </style>
  </defs>
  <path class="cls-2" d="M1233.48,142.66c0,57.94-78.5,104.91-175.34,104.91s-175.34-46.97-175.34-104.91c386.88,0,57.92,0,350.69,0Z"/>
  <image width="140" height="246" transform="scale(1.3)" xlink:href="file (2).png"/>
  <path class="cls-2" d="M403.77,216.07c8.8-35.84,34.59-65.92,65.73-84.99,62.9-38.53,147.76-38.53,210.66,0,31.15,19.07,56.94,49.16,65.73,85-10.77-34.93-36.63-63.42-67.75-81.66-90.89-54.53-238.42-26.51-274.38,81.66h0Z"/>
  <rect class="cls-1" x="985.86" y="151.03" width="144.56" height="70" rx="8.51" ry="8.51"/>
</svg>